<?xml version="1.0" standalone="no"?><!DOCTYPE svg PUBLIC "-//W3C//DTD SVG 1.1//EN" "http://www.w3.org/Graphics/SVG/1.1/DTD/svg11.dtd"><svg t="1556675649808" class="icon" style="" viewBox="0 0 1024 1024" version="1.1" xmlns="http://www.w3.org/2000/svg" p-id="1469" xmlns:xlink="http://www.w3.org/1999/xlink" width="200" height="200"><defs><style type="text/css"></style></defs><path d="M512 512m-445 0a445 445 0 1 0 890 0 445 445 0 1 0-890 0Z" fill="#E6F3FF" p-id="1470"></path><path d="M661.5 324.2H408.7c-8.2 0-14.9 6.7-14.9 14.9v29.7h223.1c8.2 0 14.9 6.7 14.9 14.9v282.6h29.7c8.2 0 14.9-6.7 14.9-14.9V339.1c0-8.2-6.7-14.9-14.9-14.9z" fill="#22D0FF" p-id="1471"></path><path d="M616 707.7H364.9c-8.7 0-15.8-7.1-15.8-15.8V381.4c0-8.7 7.1-15.8 15.8-15.8H616c8.7 0 15.8 7.1 15.8 15.8V692c-0.1 8.6-7.1 15.7-15.8 15.7z" fill="#148AF4" p-id="1472"></path><path d="M551.6 463.5H429.2c-4.5 0-8.2-3.7-8.2-8.2s3.7-8.2 8.2-8.2h122.4c4.5 0 8.2 3.7 8.2 8.2s-3.7 8.2-8.2 8.2zM551.6 517.7H429.2c-4.5 0-8.2-3.7-8.2-8.2s3.7-8.2 8.2-8.2h122.4c4.5 0 8.2 3.7 8.2 8.2s-3.7 8.2-8.2 8.2zM551.6 571.9H429.2c-4.5 0-8.2-3.7-8.2-8.2 0-4.5 3.7-8.2 8.2-8.2h122.4c4.5 0 8.2 3.7 8.2 8.2 0 4.5-3.7 8.2-8.2 8.2zM551.6 626.1H429.2c-4.5 0-8.2-3.7-8.2-8.2 0-4.5 3.7-8.2 8.2-8.2h122.4c4.5 0 8.2 3.7 8.2 8.2 0 4.5-3.7 8.2-8.2 8.2z" fill="#B8DDFF" p-id="1473"></path></svg>