<?xml version="1.0" standalone="no"?><!DOCTYPE svg PUBLIC "-//W3C//DTD SVG 1.1//EN" "http://www.w3.org/Graphics/SVG/1.1/DTD/svg11.dtd"><svg t="1556716750850" class="icon" style="" viewBox="0 0 1024 1024" version="1.1" xmlns="http://www.w3.org/2000/svg" p-id="6175" xmlns:xlink="http://www.w3.org/1999/xlink" width="200" height="200"><defs><style type="text/css"></style></defs><path d="M361.204 821.7c-58.357 0-113.222-22.726-154.486-63.991s-63.99-96.131-63.99-154.489V238.004c0-24.574 19.991-44.567 44.563-44.567h486.958c58.356 0 113.221 22.726 154.486 63.992 41.267 41.266 63.992 96.131 63.992 154.488v365.215c0 24.574-19.992 44.567-44.565 44.567H361.204z" fill="#FFFFFF" p-id="6176"></path><path d="M674.249 218.437c51.679 0 100.265 20.125 136.808 56.669 36.544 36.544 56.67 85.131 56.67 136.811v365.216c0 10.789-8.777 19.567-19.565 19.567H361.204c-51.68 0-100.266-20.125-136.809-56.669-36.543-36.544-56.668-85.131-56.668-136.811V238.004c0-10.789 8.776-19.567 19.563-19.567h486.959m0-50H187.291c-38.417 0-69.563 31.146-69.563 69.567V603.22c0 134.47 109.007 243.48 243.477 243.48h486.958c38.419 0 69.565-31.146 69.565-69.567V411.917c0-134.469-109.012-243.48-243.479-243.48z" fill="#1A1A1A" p-id="6177"></path><path d="M626.073 281.869h-347.83c-19.207 0-34.783 15.572-34.783 34.783v69.565c0 19.209 15.576 34.784 34.783 34.784h347.83c19.207 0 34.781-15.576 34.781-34.784v-69.565c0-19.211-15.574-34.783-34.781-34.783zM486.943 474.87h-208.7c-19.207 0-34.783 15.572-34.783 34.784 0 19.209 15.576 34.781 34.783 34.781h208.699c19.207 0 34.783-15.572 34.783-34.781 0-19.212-15.575-34.784-34.782-34.784z m0 121.741h-208.7c-19.207 0-34.783 15.572-34.783 34.781s15.576 34.784 34.783 34.784h208.699c19.207 0 34.783-15.576 34.783-34.784s-15.575-34.781-34.782-34.781z" fill="#FFCD36" p-id="6178"></path></svg>